<?xml version="1.0" standalone="no"?>
<!DOCTYPE svg PUBLIC "-//W3C//DTD SVG 20010904//EN"
 "http://www.w3.org/TR/2001/REC-SVG-20010904/DTD/svg10.dtd">
<svg version="1.0" xmlns="http://www.w3.org/2000/svg"
 width="310.000000pt" height="310.000000pt" viewBox="0 0 310.000000 310.000000"
 preserveAspectRatio="xMidYMid meet">
<metadata>
Created by potrace 1.14, written by Peter Selinger 2001-2017
</metadata>
<g transform="translate(0.000000,310.000000) scale(0.100000,-0.100000)"
fill="#000000" stroke="none">
<path d="M1635 3066 c-6 -6 -28 -34 -50 -61 -21 -28 -44 -53 -50 -57 -5 -4
-10 -11 -10 -15 0 -8 -32 -48 -67 -85 -10 -10 -15 -18 -11 -18 4 0 -2 -8 -13
-18 -10 -10 -28 -31 -39 -47 -11 -15 -28 -36 -37 -47 -10 -10 -18 -23 -18 -29
0 -5 -4 -7 -10 -4 -5 3 -10 -1 -10 -9 0 -8 -8 -20 -17 -25 -10 -6 -14 -11 -9
-11 5 0 -4 -11 -20 -25 -16 -14 -25 -25 -21 -25 4 0 -3 -11 -15 -25 -13 -14
-31 -35 -40 -45 -10 -11 -18 -25 -18 -31 0 -5 -5 -7 -12 -3 -8 5 -9 2 -5 -10
4 -9 3 -14 -2 -11 -5 3 -12 -4 -16 -15 -4 -11 -9 -18 -13 -16 -4 2 -18 -13
-31 -35 -14 -21 -28 -36 -33 -33 -4 3 -5 -2 -2 -10 4 -11 0 -16 -11 -16 -9 0
-14 -4 -11 -9 4 -5 1 -11 -6 -13 -7 -3 -2 -7 10 -10 12 -4 22 -2 22 3 0 4 7 6
16 2 9 -3 20 0 25 8 8 12 11 12 19 -1 5 -8 10 -10 10 -4 0 6 15 10 34 9 19 0
32 3 30 7 -3 4 5 8 18 7 23 -1 123 16 123 21 0 2 44 9 90 14 22 2 47 6 55 9
22 8 67 17 113 24 23 3 48 10 55 15 8 7 12 7 12 -2 0 -9 4 -9 13 -3 6 6 20 9
30 8 9 -2 17 0 17 4 0 4 12 8 28 9 15 1 38 5 52 8 14 3 39 7 55 8 17 2 38 6
47 10 9 4 22 5 28 1 5 -3 10 -1 10 5 0 6 5 8 10 5 6 -3 15 -3 22 1 6 4 28 9
47 11 73 8 80 9 86 15 4 4 14 4 23 1 8 -4 13 -2 10 3 -4 5 5 10 18 10 15 1 22
-2 17 -10 -3 -6 2 -4 13 4 10 9 31 15 47 14 15 0 27 3 27 8 0 5 4 6 10 3 5 -3
18 -1 29 5 14 7 22 7 27 -1 4 -8 8 -8 13 0 4 6 21 11 39 13 18 1 32 7 32 13 0
5 5 3 10 -5 6 -9 10 -10 10 -3 0 6 9 10 20 8 11 -2 20 2 20 8 0 7 4 6 10 -3 6
-9 10 -10 10 -3 0 6 9 10 20 8 11 -2 20 -1 20 4 0 4 10 7 23 8 12 0 31 4 41 8
15 6 17 5 11 -5 -5 -9 -4 -11 3 -6 7 4 12 10 12 14 0 12 -56 42 -64 35 -3 -3
-6 -1 -6 5 0 7 -3 11 -7 10 -5 -1 -45 16 -90 39 -45 23 -84 39 -87 36 -3 -4
-6 -2 -6 4 0 6 -11 14 -25 17 -14 4 -25 11 -25 16 0 5 -6 7 -13 4 -8 -3 -20 2
-27 11 -7 8 -18 15 -25 15 -16 0 -98 42 -107 55 -4 6 -8 6 -8 2 0 -4 -20 4
-45 18 -25 14 -52 25 -60 25 -8 0 -15 4 -15 8 0 9 -60 35 -77 33 -7 -1 -13 5
-13 13 0 10 -6 13 -15 10 -8 -4 -15 -1 -15 5 0 6 -3 10 -7 10 -23 -4 -43 2
-38 11 3 6 -2 10 -12 10 -10 0 -28 7 -39 15 -12 8 -24 11 -28 8 -3 -3 -6 -1
-6 5 0 7 -9 12 -20 12 -11 0 -20 5 -20 10 0 6 -9 10 -20 10 -11 0 -20 5 -20
11 0 5 -4 7 -10 4 -5 -3 -10 -2 -10 3 0 12 -24 11 -35 -2z"/>
<path d="M1275 3000 c-4 -6 -12 -9 -18 -7 -7 2 -18 -2 -25 -10 -8 -7 -17 -11
-22 -8 -4 3 -11 -2 -14 -11 -4 -9 -13 -14 -21 -10 -8 3 -15 1 -15 -5 0 -6 -4
-8 -8 -5 -5 3 -19 -4 -30 -15 -15 -13 -22 -15 -22 -7 0 8 -4 7 -10 -4 -6 -9
-24 -19 -40 -23 -17 -4 -30 -10 -30 -15 0 -5 -13 -11 -30 -15 -16 -4 -30 -11
-30 -16 0 -5 -9 -9 -19 -9 -11 0 -23 -5 -26 -11 -4 -6 -13 -8 -21 -5 -7 3 -17
-1 -21 -9 -5 -7 -15 -15 -23 -17 -8 -2 -18 -7 -21 -11 -3 -4 -15 -9 -27 -10
-11 0 -18 -5 -16 -9 5 -7 -10 -12 -28 -9 -5 0 -8 -4 -8 -10 0 -6 -6 -9 -12 -7
-7 3 -21 -4 -32 -14 -11 -10 -28 -18 -37 -18 -10 0 -21 -5 -24 -10 -4 -6 -11
-8 -16 -5 -5 4 -9 1 -9 -5 0 -6 -4 -8 -10 -5 -5 3 -10 2 -10 -2 0 -5 -16 -15
-35 -22 -19 -7 -35 -17 -35 -22 0 -5 -6 -9 -12 -8 -14 3 -109 -41 -119 -54 -3
-5 -9 -8 -13 -7 -11 2 -100 -43 -123 -64 -17 -15 -20 -22 -12 -33 9 -10 8 -13
0 -13 -7 0 -9 -4 -6 -10 3 -5 3 -16 -2 -22 -4 -7 -9 -22 -11 -33 -5 -33 -10
-60 -12 -60 -1 0 -4 -13 -6 -30 -3 -16 -10 -35 -16 -42 -7 -9 -7 -13 2 -13 10
0 10 -3 0 -15 -6 -8 -9 -19 -5 -25 3 -5 1 -10 -4 -10 -6 0 -10 -3 -10 -7 1 -5
1 -10 0 -13 -1 -3 -4 -18 -6 -35 -6 -44 -10 -59 -18 -72 -5 -7 -5 -17 -2 -23
3 -5 0 -10 -7 -10 -9 0 -9 -3 2 -10 8 -5 10 -10 5 -10 -10 0 -15 -19 -19 -67
0 -13 -4 -23 -7 -23 -6 0 -8 -8 -12 -55 -1 -16 -8 -37 -16 -45 -10 -10 -10
-15 -2 -18 9 -3 9 -8 1 -17 -6 -7 -12 -27 -13 -44 -1 -17 -5 -31 -10 -31 -4 0
-6 -3 -6 -7 1 -5 1 -21 0 -36 -1 -20 -5 -26 -13 -21 -10 6 -10 4 0 -8 9 -11
10 -18 2 -23 -6 -3 -8 -11 -5 -16 4 -5 2 -9 -3 -9 -4 0 -8 -16 -7 -35 1 -19
-2 -32 -7 -29 -6 4 -7 -7 -5 -25 3 -17 1 -29 -4 -25 -5 3 -9 2 -10 -3 -2 -18
-6 -49 -9 -58 -9 -35 4 -33 32 6 18 24 41 52 52 62 10 9 16 17 12 17 -4 0 3
11 16 24 13 13 30 34 38 46 8 13 27 36 42 52 16 16 28 31 28 33 0 6 30 43 54
66 11 11 17 19 13 19 -7 0 27 42 70 87 12 13 20 23 17 23 -3 0 1 6 8 13 7 8
27 31 43 52 17 21 36 44 43 51 7 8 11 14 8 14 -3 0 6 11 19 25 14 13 25 29 25
35 0 6 5 8 10 5 6 -3 10 0 10 7 0 12 31 51 90 116 11 12 18 22 14 22 -4 0 5
11 20 25 14 13 27 28 27 32 1 5 5 7 9 6 5 -2 12 6 15 18 4 11 17 30 30 43 13
13 21 27 18 30 -3 3 2 8 11 12 9 3 16 13 16 21 0 8 5 11 10 8 6 -3 10 -1 10 4
0 6 9 20 20 31 11 11 18 20 15 20 -3 0 8 14 25 31 16 17 27 37 23 43 -3 6 -3
8 2 4 4 -4 24 15 43 42 19 28 39 50 43 50 5 0 9 5 9 10 0 6 11 21 25 34 13 13
22 26 18 29 -3 4 1 7 11 7 9 0 14 5 11 10 -3 6 1 13 9 16 9 3 16 11 16 17 0 6
6 17 14 26 8 9 26 29 40 44 14 15 26 32 26 37 0 6 5 10 10 10 6 0 10 4 10 9 0
5 16 26 35 47 19 21 35 44 35 52 0 7 4 11 9 8 5 -3 14 1 20 8 8 9 8 16 2 20
-5 4 -13 2 -16 -4z"/>
<path d="M2827 2404 c-6 -6 -31 -11 -89 -16 -16 -1 -28 -5 -28 -8 0 -4 -12 -7
-27 -8 -16 0 -41 -4 -58 -7 -16 -3 -42 -7 -57 -8 -16 -1 -28 -5 -28 -9 0 -4
-8 -5 -17 -4 -10 2 -29 -1 -43 -7 -14 -5 -36 -10 -50 -11 -14 -1 -52 -6 -85
-11 -33 -5 -63 -8 -67 -7 -5 1 -8 -3 -8 -9 0 -6 -9 -8 -21 -4 -16 6 -20 4 -13
-6 6 -11 5 -12 -7 -2 -12 10 -18 10 -27 1 -7 -7 -12 -8 -12 -3 0 6 -5 3 -10
-5 -7 -11 -10 -11 -10 -2 0 10 -5 10 -21 2 -11 -7 -27 -9 -35 -6 -8 3 -14 2
-14 -3 0 -5 -11 -7 -25 -6 -14 2 -25 0 -25 -4 0 -4 -16 -8 -35 -9 -19 -1 -43
-6 -54 -11 -12 -7 -22 -6 -31 2 -10 9 -11 9 -6 0 5 -9 0 -13 -16 -14 -13 0
-34 -3 -48 -5 -14 -2 -37 -6 -52 -7 -15 -2 -30 -6 -34 -9 -3 -4 -12 -4 -20 -1
-8 3 -14 1 -14 -4 0 -5 -16 -9 -35 -8 -19 1 -35 -3 -35 -8 0 -6 -3 -7 -6 -4
-4 3 -16 2 -27 -4 -15 -9 -18 -8 -12 2 6 8 4 10 -5 4 -6 -4 -29 -10 -49 -12
-20 -3 -37 -9 -39 -13 -2 -5 -16 -4 -33 0 -18 5 -27 5 -24 -1 4 -5 -1 -10 -9
-10 -29 -3 -34 -4 -41 -11 -4 -4 -16 -3 -26 2 -10 6 -20 6 -23 1 -5 -8 -154
-37 -170 -33 -4 2 -13 -1 -20 -6 -6 -5 -19 -8 -28 -7 -10 2 -18 0 -18 -3 0 -7
-40 -12 -92 -12 -16 0 -28 -4 -28 -8 0 -5 -11 -8 -25 -7 -14 2 -25 0 -25 -4 0
-4 -12 -8 -27 -9 -16 -1 -37 -4 -48 -6 -11 -3 -23 -5 -27 -5 -4 -1 -5 -8 -1
-17 3 -9 0 -20 -8 -25 -8 -5 -9 -9 -3 -9 11 0 13 -25 17 -207 1 -39 5 -75 9
-79 4 -4 4 -12 -1 -18 -14 -17 -14 -28 1 -37 11 -7 11 -9 -1 -9 -11 0 -11 -3
0 -17 12 -15 12 -16 -1 -8 -13 8 -13 7 -1 -8 9 -12 10 -17 2 -17 -7 0 -9 -5
-4 -12 4 -7 9 -44 10 -83 1 -38 3 -116 4 -172 1 -56 5 -100 9 -98 4 2 7 -2 7
-10 0 -8 -4 -12 -8 -10 -4 3 -6 -6 -5 -20 0 -14 5 -25 9 -25 4 0 3 -8 -2 -19
-6 -10 -7 -21 -4 -25 4 -4 8 -58 8 -120 1 -62 5 -118 9 -124 4 -7 2 -12 -4
-12 -7 0 -8 -6 -3 -17 5 -10 8 -44 8 -75 0 -32 3 -58 8 -58 4 0 3 -9 -3 -20
-8 -14 -8 -20 0 -20 6 0 8 -5 4 -12 -6 -10 -9 -74 -4 -80 1 -2 3 -37 4 -79 2
-41 6 -81 11 -89 5 -9 4 -11 -3 -6 -7 4 -12 2 -12 -3 0 -6 6 -11 13 -11 8 0 7
-4 -3 -10 -13 -9 -13 -10 0 -10 13 0 13 -1 0 -10 -12 -8 -11 -10 8 -10 12 0
22 5 22 10 0 6 9 19 20 30 11 11 18 20 15 20 -6 0 20 32 60 74 16 17 28 32 26
34 -1 2 10 18 26 35 15 18 28 35 28 39 0 4 9 14 20 22 11 9 17 16 12 16 -4 0
1 8 10 18 32 34 61 70 73 91 6 12 16 18 22 15 7 -4 8 -3 4 4 -4 7 -2 12 3 12
6 0 11 5 11 12 0 6 7 18 15 27 46 51 55 61 55 66 0 3 8 14 18 26 39 47 48 58
62 79 8 13 24 33 35 46 35 39 50 58 74 94 27 38 36 49 80 98 17 17 27 32 24
32 -4 0 8 15 25 33 18 18 30 36 26 39 -3 4 4 9 15 13 12 4 18 12 14 21 -3 7 0
14 6 14 6 0 19 13 30 30 10 16 21 27 24 23 4 -3 7 1 7 10 0 10 5 17 10 17 6 0
10 7 10 16 0 8 5 12 10 9 6 -3 10 -1 10 5 0 6 7 18 15 27 8 8 12 19 9 25 -4 6
-2 8 4 4 6 -3 13 3 17 14 4 11 11 18 16 15 5 -4 9 1 9 10 0 8 7 18 15 21 8 4
13 10 10 15 -3 4 4 13 16 19 11 7 19 14 16 16 -3 3 6 17 19 31 13 14 21 30 18
35 -3 4 -2 7 3 6 9 -3 53 37 54 50 0 4 14 22 30 40 16 17 26 32 23 32 -4 0 5
11 20 25 14 13 26 27 26 30 0 6 37 44 48 48 4 1 6 6 4 10 -1 5 3 5 10 1 7 -4
27 -8 45 -7 18 0 33 -4 33 -8 0 -5 7 -9 15 -9 8 0 15 -4 15 -10 0 -5 6 -10 13
-10 7 0 19 -9 27 -20 8 -11 19 -20 25 -20 5 0 26 -16 45 -36 18 -19 47 -43 62
-52 15 -9 28 -20 28 -24 0 -4 7 -8 15 -8 8 0 15 -4 15 -10 0 -5 16 -20 35 -33
19 -13 32 -27 27 -32 -4 -5 -1 -5 5 -1 8 4 23 -3 37 -18 13 -14 29 -26 35 -26
7 0 9 -4 6 -10 -3 -5 1 -10 9 -10 8 0 20 -8 25 -17 6 -10 11 -15 11 -10 0 7
21 -9 64 -50 13 -13 26 -23 28 -23 3 0 23 -16 44 -35 21 -19 44 -35 52 -35 7
0 10 -4 7 -10 -3 -5 -2 -10 3 -10 4 0 18 -9 30 -20 12 -12 22 -18 22 -14 0 4
8 -3 19 -14 10 -12 22 -22 27 -22 5 0 15 -9 22 -20 16 -27 33 -25 28 3 -3 12
-5 23 -7 25 -1 1 -3 7 -4 12 -1 6 -3 11 -5 13 -4 5 -11 43 -11 60 0 11 -5 15
-12 10 -8 -4 -8 -1 1 9 9 11 10 18 2 23 -5 3 -10 16 -10 29 0 12 -6 28 -12 35
-11 11 -10 12 2 6 13 -8 13 -6 2 7 -7 9 -12 22 -11 30 2 7 -3 24 -10 37 -9 15
-9 21 -1 16 7 -4 6 6 -4 28 -8 20 -12 38 -8 41 3 3 1 6 -4 6 -5 0 -10 12 -11
28 -3 29 -10 77 -13 77 -2 0 -9 37 -12 63 -1 12 -5 22 -9 22 -3 0 -6 6 -6 13
-3 46 -12 80 -23 87 -10 6 -9 9 1 13 12 5 12 7 1 15 -8 5 -13 12 -13 16 1 3 1
7 0 9 0 1 -2 17 -3 35 -2 18 -10 40 -17 49 -8 9 -9 14 -3 10 8 -4 11 2 10 17
0 13 -5 24 -11 23 -5 -1 -9 6 -7 17 2 10 0 25 -4 35 -10 23 -14 41 -19 81 -2
19 -4 37 -5 40 -2 3 -2 8 -1 13 0 4 -4 7 -10 7 -5 0 -7 5 -4 10 7 11 -8 14
-18 4z"/>
<path d="M630 1799 c0 -5 -4 -7 -10 -4 -5 3 -10 -1 -10 -9 0 -8 -8 -20 -17
-25 -10 -6 -15 -11 -11 -11 7 0 -14 -26 -64 -81 -10 -10 -16 -19 -13 -19 3 0
-4 -11 -17 -25 -38 -40 -48 -54 -48 -65 0 -6 -4 -8 -10 -5 -5 3 -10 1 -10 -5
0 -12 -12 -28 -53 -71 -15 -16 -24 -29 -20 -29 4 0 3 -4 -2 -8 -25 -17 -84
-100 -77 -107 4 -5 -1 -5 -10 -2 -12 4 -18 1 -18 -8 0 -8 -9 -24 -19 -34 -11
-11 -25 -29 -31 -41 -6 -11 -15 -18 -21 -15 -5 4 -9 -1 -9 -10 0 -9 -15 -30
-33 -47 -17 -18 -32 -35 -32 -38 1 -5 -16 -26 -51 -65 -15 -16 -20 -32 -17
-50 3 -14 8 -24 10 -21 3 3 21 -16 41 -42 19 -26 44 -55 55 -64 11 -10 16 -18
11 -18 -5 0 4 -11 19 -25 15 -14 27 -29 27 -33 0 -4 15 -24 33 -43 18 -19 36
-43 40 -52 3 -9 11 -17 17 -17 5 0 10 -7 10 -15 0 -8 4 -15 8 -15 5 0 15 -11
22 -25 7 -13 17 -22 22 -19 4 3 8 -2 8 -10 0 -8 9 -21 20 -29 11 -8 17 -17 13
-20 -3 -4 0 -7 7 -7 7 0 11 -3 7 -6 -7 -8 24 -44 34 -38 4 2 12 -10 18 -26 5
-17 14 -30 20 -30 5 0 13 -9 16 -20 4 -11 11 -18 16 -15 5 4 9 0 9 -7 0 -7 16
-30 35 -50 18 -21 32 -38 29 -38 -4 0 6 -13 64 -76 12 -14 19 -30 16 -36 -4
-6 -3 -8 3 -5 6 4 13 0 16 -7 3 -8 14 -19 24 -25 15 -8 19 -6 19 10 0 10 -5
19 -10 19 -6 0 -6 4 0 10 6 6 8 31 4 60 -3 27 -6 70 -5 95 0 25 -3 45 -8 45
-5 0 -4 7 4 16 10 13 10 17 -1 24 -11 7 -11 12 -2 23 7 7 9 17 5 21 -4 3 -8
53 -10 109 -2 56 -4 126 -6 155 -1 28 2 52 7 52 6 0 1 7 -10 16 -10 8 -13 12
-6 9 16 -8 13 26 -3 37 -7 5 -6 8 0 8 12 0 13 46 2 57 -4 3 -2 12 4 20 6 7 7
13 3 13 -5 0 -9 33 -9 73 1 39 -4 75 -10 79 -6 5 -7 8 0 8 6 0 9 17 8 38 -4
47 -13 223 -13 240 0 6 0 18 0 25 1 6 -1 49 -3 94 -4 60 -2 81 7 76 8 -5 8 -3
0 8 -15 19 -24 59 -13 59 5 0 5 10 1 23 -4 12 -7 39 -5 60 1 20 -2 37 -7 37
-6 0 -10 -5 -10 -11z"/>
<path d="M2260 1662 c0 -4 -13 -22 -29 -40 -17 -17 -27 -32 -24 -32 3 0 -4 -9
-17 -20 -13 -11 -20 -20 -16 -20 4 0 -3 -11 -16 -25 -31 -32 -41 -46 -62 -78
-10 -15 -23 -24 -29 -20 -6 3 -7 1 -3 -5 4 -7 -5 -23 -20 -37 -15 -14 -23 -25
-19 -25 4 0 -2 -9 -15 -20 -13 -11 -20 -20 -17 -20 4 0 -1 -8 -10 -18 -10 -10
-29 -33 -43 -52 -14 -19 -33 -42 -42 -52 -10 -10 -18 -23 -18 -29 0 -5 -5 -7
-11 -4 -6 4 -9 0 -7 -11 2 -11 -2 -18 -9 -16 -7 1 -13 -4 -13 -12 0 -8 -3 -16
-7 -18 -10 -4 -52 -56 -73 -89 -8 -13 -27 -36 -42 -52 -16 -16 -28 -33 -28
-38 0 -5 -5 -9 -11 -9 -5 0 -7 -4 -4 -10 3 -5 1 -10 -5 -10 -6 0 -15 -11 -22
-25 -6 -13 -15 -22 -19 -19 -5 3 -9 -1 -9 -9 0 -8 -9 -22 -20 -32 -11 -10 -20
-25 -20 -33 0 -9 -3 -12 -7 -9 -10 11 -31 -25 -25 -45 2 -10 8 -16 12 -13 4 3
23 -11 41 -29 18 -19 37 -32 41 -30 4 3 8 -3 8 -12 0 -10 3 -15 6 -11 5 5 33
-15 70 -51 7 -6 17 -12 23 -12 5 0 16 -8 23 -18 7 -10 21 -21 31 -25 10 -4 15
-11 12 -17 -3 -5 0 -10 8 -10 14 0 58 -34 113 -86 13 -12 25 -19 28 -16 3 3 6
-2 6 -12 0 -9 4 -15 9 -11 6 3 26 -11 45 -30 20 -20 36 -32 36 -28 0 4 5 0 11
-9 5 -10 14 -18 19 -18 5 0 20 -10 33 -22 13 -13 38 -34 56 -48 19 -14 42 -34
52 -44 11 -11 19 -16 19 -11 0 5 7 0 15 -11 8 -10 15 -15 15 -10 0 6 6 1 14
-9 13 -18 51 -32 40 -14 -3 5 0 9 6 9 6 0 14 8 17 17 4 9 14 24 22 33 18 19
29 33 81 100 19 25 42 50 50 57 8 7 11 13 7 13 -4 0 4 11 19 25 15 14 24 25
20 25 -4 0 -1 6 6 14 7 8 16 12 21 9 4 -2 7 -1 6 4 -4 15 13 43 22 37 8 -5 13
9 10 29 0 4 3 7 9 7 5 0 21 17 35 37 14 21 25 34 25 29 0 -4 17 16 37 45 45
66 58 80 68 71 5 -4 5 -2 1 5 -3 6 6 24 20 40 15 15 38 44 53 63 14 19 32 39
38 43 7 4 13 12 13 17 0 6 8 19 18 29 36 40 62 73 62 81 0 4 7 11 16 14 8 3
12 10 9 16 -3 5 1 10 10 10 9 0 14 4 11 9 -4 5 -2 11 4 13 15 5 0 48 -17 48
-8 0 -11 5 -7 12 4 6 3 8 -4 4 -6 -3 -22 5 -36 19 -14 14 -29 25 -33 25 -5 0
-15 8 -24 18 -8 9 -30 28 -48 42 -34 27 -63 50 -99 81 -12 10 -26 19 -30 19
-4 0 -13 9 -20 20 -7 11 -17 20 -23 20 -7 0 -19 8 -28 18 -9 9 -36 33 -61 52
-25 19 -46 38 -48 42 -2 4 -7 8 -12 8 -5 0 -26 16 -48 36 -22 20 -42 34 -44
32 -2 -1 -17 11 -34 28 -16 17 -44 39 -61 49 -18 10 -30 22 -27 26 2 4 -5 10
-16 14 -11 3 -20 11 -20 16 0 6 -4 7 -10 4 -5 -3 -10 -1 -10 4 0 6 -7 11 -15
11 -8 0 -15 -3 -15 -8z"/>
<path d="M1373 526 c-12 -14 -29 -36 -38 -50 -10 -14 -22 -23 -28 -19 -6 3 -7
1 -3 -5 4 -6 -2 -20 -14 -32 -11 -11 -20 -24 -20 -30 0 -5 -7 -10 -16 -10 -8
0 -13 -4 -10 -9 3 -5 -6 -21 -19 -35 -14 -15 -25 -31 -25 -37 0 -5 -3 -9 -8
-9 -4 0 -32 -33 -62 -72 -30 -40 -58 -74 -62 -76 -5 -2 -8 -7 -8 -12 0 -8 -27
-43 -66 -86 -14 -14 -17 -24 -10 -27 18 -6 80 -2 94 7 7 4 12 2 12 -3 0 -13
22 -10 32 4 5 6 8 6 8 -2 0 -12 17 -12 36 0 6 3 14 3 18 -1 10 -10 86 -9 86 1
0 5 6 5 13 0 17 -11 40 -10 56 2 12 8 13 7 6 -5 -8 -13 -7 -13 8 -1 10 7 17 9
17 3 0 -11 18 -11 37 1 6 4 14 3 17 -1 6 -10 36 -9 54 2 6 4 12 3 12 -2 0 -10
50 -9 68 2 7 4 12 2 12 -3 0 -13 22 -10 32 4 5 6 8 6 8 -2 0 -12 17 -12 36 0
6 3 14 3 18 -1 11 -10 86 -9 86 2 0 5 6 5 13 0 15 -11 38 -11 56 0 11 7 12 6
6 -5 -8 -12 -6 -12 8 0 10 7 17 9 17 3 0 -11 25 -10 36 1 4 4 13 2 20 -3 14
-12 36 -10 47 5 5 7 10 7 15 0 10 -14 52 -15 52 -1 0 6 4 5 9 -3 11 -17 32 -5
25 14 -3 8 -9 13 -13 12 -3 -1 -17 8 -30 20 -13 12 -29 19 -34 16 -6 -4 -8 0
-4 10 3 9 2 16 -2 14 -5 -1 -23 10 -40 26 -17 15 -31 25 -31 22 0 -3 -10 4
-23 17 -13 13 -37 33 -53 45 -49 37 -73 57 -106 86 -17 15 -36 27 -40 27 -5 0
-6 5 -2 12 4 6 3 8 -3 5 -5 -3 -21 4 -34 17 -14 13 -35 29 -47 35 -13 7 -19
17 -16 23 4 7 3 8 -5 4 -6 -4 -14 0 -17 8 -3 9 -11 16 -18 16 -6 0 -19 8 -27
18 -9 9 -29 26 -44 37 -16 11 -34 26 -41 33 -18 17 -28 15 -51 -12z"/>
</g>
</svg>
